<svg width="8" height="23" viewBox="0 0 8 23" fill="none" xmlns="http://www.w3.org/2000/svg">
<circle cx="6.5" cy="1.5" r="1.5" fill="black"/>
<circle cx="6.5" cy="6.5" r="1.5" fill="black"/>
<path d="M8 11.5C8 12.3284 7.32843 13 6.5 13C5.67157 13 5 12.3284 5 11.5C5 10.6716 5.67157 10 6.5 10C7.32843 10 8 10.6716 8 11.5Z" fill="black"/>
<circle cx="6.5" cy="16.5" r="1.5" fill="black"/>
<circle cx="6.5" cy="21.5" r="1.5" fill="black"/>
<circle cx="1.5" cy="1.5" r="1.5" fill="black"/>
<circle cx="1.5" cy="6.5" r="1.5" fill="black"/>
<path d="M3 11.5C3 12.3284 2.32843 13 1.5 13C0.671573 13 0 12.3284 0 11.5C0 10.6716 0.671573 10 1.5 10C2.32843 10 3 10.6716 3 11.5Z" fill="black"/>
<circle cx="1.5" cy="16.5" r="1.5" fill="black"/>
<circle cx="1.5" cy="21.5" r="1.5" fill="black"/>
</svg>
