<svg width="35" height="35" viewBox="0 0 35 35" fill="none" xmlns="http://www.w3.org/2000/svg">
<path d="M0 5.83333C0 4.28624 0.614581 2.80251 1.70854 1.70854C2.80251 0.614581 4.28624 0 5.83333 0H23.3333C24.8804 0 26.3642 0.614581 27.4581 1.70854C28.5521 2.80251 29.1667 4.28624 29.1667 5.83333V23.3333C29.1667 24.8804 28.5521 26.3642 27.4581 27.4581C26.3642 28.5521 24.8804 29.1667 23.3333 29.1667H5.83333C4.28624 29.1667 2.80251 28.5521 1.70854 27.4581C0.614581 26.3642 0 24.8804 0 23.3333V5.83333ZM13.125 13.125H7.29167C6.90489 13.125 6.53396 13.2786 6.26047 13.5521C5.98698 13.8256 5.83333 14.1966 5.83333 14.5833C5.83333 14.9701 5.98698 15.341 6.26047 15.6145C6.53396 15.888 6.90489 16.0417 7.29167 16.0417H13.125V21.875C13.125 22.2618 13.2786 22.6327 13.5521 22.9062C13.8256 23.1797 14.1966 23.3333 14.5833 23.3333C14.9701 23.3333 15.341 23.1797 15.6145 22.9062C15.888 22.6327 16.0417 22.2618 16.0417 21.875V16.0417H21.875C22.2618 16.0417 22.6327 15.888 22.9062 15.6145C23.1797 15.341 23.3333 14.9701 23.3333 14.5833C23.3333 14.1966 23.1797 13.8256 22.9062 13.5521C22.6327 13.2786 22.2618 13.125 21.875 13.125H16.0417V7.29167C16.0417 6.90489 15.888 6.53396 15.6145 6.26047C15.341 5.98698 14.9701 5.83333 14.5833 5.83333C14.1966 5.83333 13.8256 5.98698 13.5521 6.26047C13.2786 6.53396 13.125 6.90489 13.125 7.29167V13.125ZM24.7917 32.0833C26.7255 32.0833 28.5802 31.3151 29.9477 29.9477C31.3151 28.5802 32.0833 26.7255 32.0833 24.7917V3.69833C32.9701 4.2103 33.7065 4.94667 34.2184 5.83342C34.7304 6.72017 35 7.72606 35 8.75V24.7917C35 27.4991 33.9245 30.0956 32.01 32.01C30.0956 33.9245 27.4991 35 24.7917 35H8.75C7.72606 35 6.72017 34.7304 5.83342 34.2184C4.94667 33.7065 4.2103 32.9701 3.69833 32.0833H24.7917Z" fill="#0188A5"/>
</svg>
